FFmpeg version SVN-r25716, Copyright (c) 2000-2010 the FFmpeg developers  built on Nov 10 2010 12:23:18 with gcc 4.1.2 20080704 (Red Hat 4.1.2-48)  configuration: --enable-libmp3lame --enable-shared --disable-mmx --arch=x86_64  libavutil     50.33. 0 / 50.33. 0  libavcore      0.12. 1 /  0.12. 1  libavcodec    52.94. 4 / 52.94. 4  libavformat   52.84. 0 / 52.84. 0  libavdevice   52. 2. 2 / 52. 2. 2  libavfilter    1.59. 0 /  1.59. 0  libswscale     0.12. 0 /  0.12. 0Input #0, avi, from '/RAID10/data/converted_video_files/48058.avi':  Duration: 00:00:31.36, start: 0.000000, bitrate: 3873 kb/s    Stream #0.0: Video: cinepak, yuv420p, 540x304, 25 tbr, 25 tbn, 25 tbc    Metadata:      title           : Video[buffer @ 0x159bf1c0] w:540 h:304 pixfmt:yuv420pOutput #0, flv, to '/RAID10/data/converted_video_files/48058.flv':  Metadata:    encoder         : Lavf52.84.0    Stream #0.0: Video: flv, yuv420p, 540x304, q=2-31, 600 kb/s, 1k tbn, 24 tbc    Metadata:      title           : VideoStream mapping:  Stream #0.0 -> #0.0Press [q] to stop encodingframe=   75 fps=  0 q=21.2 size=     499kB time=3.12 bitrate=1307.5kbits/s dup=0 drop=3    frame=  176 fps=165 q=20.5 size=     820kB time=7.33 bitrate= 916.4kbits/s dup=0 drop=7    frame=  268 fps=173 q=23.1 size=    1108kB time=11.17 bitrate= 812.6kbits/s dup=0 drop=11    frame=  363 fps=176 q=26.9 size=    1409kB time=15.12 bitrate= 762.9kbits/s dup=0 drop=15    frame=  442 fps=173 q=22.1 size=    1643kB time=18.42 bitrate= 730.9kbits/s dup=0 drop=18    frame=  533 fps=175 q=19.7 size=    1918kB time=22.21 bitrate= 707.5kbits/s dup=0 drop=22    frame=  609 fps=171 q=17.0 size=    2153kB time=25.38 bitrate= 695.1kbits/s dup=0 drop=25    frame=  703 fps=173 q=16.3 size=    2422kB time=29.29 bitrate= 677.3kbits/s dup=0 drop=29    frame=  753 fps=169 q=16.1 Lsize=    2555kB time=31.38 bitrate= 667.2kbits/s dup=0 drop=31    video:2543kB audio:0kB global headers:0kB muxing overhead 0.470681%